# xmcd
#
# Track frame offsets: 
#        150
#        19956
#        34003
#        52487
#        73281
#        87112
#        100206
#        118820
#        135869
#        154461
#        166331
#        179088
#        193853
#        207455
#        221626
#        237627
#        250346
#        266879
#        276249
#        284302
#        294247
#        305066
#        312045
#        326676
#        338967
#
# Disc length: 4694 seconds
#
# Revision: 2
# Processed by: cddbd v1.5.2PL0 Copyright (c) Steve Scherf et al.
# Submitted via: ExactAudioCopy v0.99pb5
#
DISCID=9b125419
DTITLE=Leadbelly - You Don't Know My Mind
DYEAR=2002
DGENRE=Blues
TTITLE0=Matchbox Blues
TTITLE1=Midnight Special
TTITLE2=Frankie And Albert
TTITLE3=Irene
TTITLE4=Becky Dean, She Was A Gamblin' Girl
TTITLE5=Take A Whiff On Me
TTITLE6=C.C. Rider
TTITLE7=Which Way Do The Red River Run
TTITLE8=You Don't Know My Mind
TTITLE9=Fannin Street
TTITLE10=De Kalb Blues
TTITLE11=Sail On, Littlegirl, Sail On
TTITLE12=New York City
TTITLE13=Worried Blues
TTITLE14=Leaving Blues
TTITLE15=Noted Rider Blues
TTITLE16=So Doggone Soon
TTITLE17=Rock Island Line
TTITLE18=On A Monday
TTITLE19=How Long Blues
TTITLE20=Good Morning Blues
TTITLE21=Cow Cow Yiki
TTITLE22=In New Orleans
TTITLE23=Ella Speed
TTITLE24=Sweet Mary Blues
EXTD=YEAR: 2002 ID3G:   0
EXTT0=
EXTT1=
EXTT2=
EXTT3=
EXTT4=
EXTT5=
EXTT6=
EXTT7=
EXTT8=
EXTT9=
EXTT10=
EXTT11=
EXTT12=
EXTT13=
EXTT14=
EXTT15=
EXTT16=
EXTT17=
EXTT18=
EXTT19=
EXTT20=
EXTT21=
EXTT22=
EXTT23=
EXTT24=
PLAYORDER=
